<svg xmlns="http://www.w3.org/2000/svg" viewBox="0 0 640 800" preserveAspectRatio="xMidYMid slice">
  <rect width="640" height="800" fill="#0E0D0B"/>
  <g fill="#F5F0E8">
    <circle cx="80" cy="55" r="1.4"/><circle cx="195" cy="40" r="1.6"/>
    <circle cx="320" cy="125" r="1.6"/><circle cx="365" cy="55" r="1.4"/>
    <circle cx="475" cy="35" r="1.4"/><circle cx="540" cy="90" r="1.6"/>
    <circle cx="588" cy="160" r="1.4"/><circle cx="148" cy="160" r="1.4"/>
    <circle cx="475" cy="220" r="1.4"/><circle cx="60" cy="200" r="1.2"/>
  </g>
  <g stroke="#C9A84C" stroke-width="0.5" opacity="0.06">
    <line x1="0" y1="120" x2="640" y2="120"/><line x1="0" y1="200" x2="640" y2="200"/>
    <line x1="0" y1="280" x2="640" y2="280"/><line x1="0" y1="360" x2="640" y2="360"/>
    <line x1="0" y1="440" x2="640" y2="440"/><line x1="0" y1="520" x2="640" y2="520"/>
    <line x1="0" y1="600" x2="640" y2="600"/><line x1="0" y1="680" x2="640" y2="680"/>
    <line x1="80" y1="0" x2="80" y2="800"/><line x1="160" y1="0" x2="160" y2="800"/>
    <line x1="240" y1="0" x2="240" y2="800"/><line x1="320" y1="0" x2="320" y2="800"/>
    <line x1="400" y1="0" x2="400" y2="800"/><line x1="480" y1="0" x2="480" y2="800"/>
    <line x1="560" y1="0" x2="560" y2="800"/>
  </g>
  <line x1="0" y1="650" x2="640" y2="650" stroke="#C9A84C" stroke-width="1" opacity="0.35"/>
  <g>
    <rect x="50" y="430" width="80" height="220" fill="#1C1B18" stroke="#C9A84C" stroke-width="0.6" opacity="0.95"/>
    <g fill="#C9A84C" opacity="0.85">
      <rect x="62" y="450" width="14" height="14"/><rect x="84" y="450" width="14" height="14"/><rect x="106" y="450" width="14" height="14"/>
      <rect x="62" y="478" width="14" height="14"/><rect x="84" y="478" width="14" height="14"/><rect x="106" y="478" width="14" height="14"/>
      <rect x="62" y="506" width="14" height="14"/><rect x="84" y="506" width="14" height="14"/><rect x="106" y="506" width="14" height="14"/>
      <rect x="62" y="534" width="14" height="14"/><rect x="84" y="534" width="14" height="14"/><rect x="106" y="534" width="14" height="14"/>
      <rect x="62" y="562" width="14" height="14"/><rect x="84" y="562" width="14" height="14"/><rect x="106" y="562" width="14" height="14"/>
      <rect x="62" y="590" width="14" height="14"/><rect x="84" y="590" width="14" height="14"/><rect x="106" y="590" width="14" height="14"/>
    </g>
  </g>
  <g>
    <rect x="140" y="320" width="120" height="330" fill="#1C1B18" stroke="#C9A84C" stroke-width="0.6"/>
    <g fill="#E8D5A3">
      <rect x="158" y="340" width="22" height="22"/><rect x="190" y="340" width="42" height="22"/>
      <rect x="158" y="372" width="42" height="22"/><rect x="210" y="372" width="22" height="22"/>
      <rect x="158" y="404" width="22" height="22"/><rect x="190" y="404" width="42" height="22"/>
      <rect x="158" y="436" width="42" height="22"/><rect x="210" y="436" width="22" height="22"/>
      <rect x="158" y="468" width="22" height="22"/><rect x="190" y="468" width="42" height="22"/>
      <rect x="158" y="500" width="42" height="22"/><rect x="210" y="500" width="22" height="22"/>
      <rect x="158" y="532" width="22" height="22"/><rect x="190" y="532" width="42" height="22"/>
      <rect x="158" y="564" width="42" height="22"/><rect x="210" y="564" width="22" height="22"/>
      <rect x="158" y="596" width="22" height="22"/><rect x="190" y="596" width="42" height="22"/>
    </g>
  </g>
  <g>
    <rect x="290" y="350" width="100" height="300" fill="#1C1B18" stroke="#C9A84C" stroke-width="0.6"/>
    <g fill="#C9A84C">
      <rect x="305" y="372" width="30" height="22"/><rect x="345" y="372" width="30" height="22"/>
      <rect x="320" y="404" width="22" height="22"/><rect x="352" y="404" width="22" height="22"/>
      <rect x="305" y="436" width="22" height="22"/><rect x="337" y="436" width="22" height="22"/>
      <rect x="345" y="468" width="30" height="22"/>
      <rect x="305" y="500" width="22" height="22"/><rect x="337" y="500" width="22" height="22"/>
      <rect x="305" y="532" width="30" height="22"/><rect x="345" y="532" width="30" height="22"/>
      <rect x="320" y="564" width="22" height="22"/><rect x="352" y="564" width="22" height="22"/>
      <rect x="305" y="596" width="30" height="22"/><rect x="345" y="596" width="30" height="22"/>
    </g>
  </g>
  <g>
    <rect x="420" y="380" width="110" height="270" fill="#1C1B18" stroke="#C9A84C" stroke-width="0.6"/>
    <g fill="#E8D5A3">
      <rect x="438" y="402" width="32" height="20"/><rect x="478" y="402" width="42" height="20"/>
      <rect x="438" y="432" width="22" height="20"/><rect x="468" y="432" width="22" height="20"/><rect x="498" y="432" width="22" height="20"/>
      <rect x="438" y="462" width="42" height="20"/><rect x="488" y="462" width="32" height="20"/>
      <rect x="438" y="492" width="22" height="20"/><rect x="468" y="492" width="42" height="20"/>
      <rect x="438" y="522" width="42" height="20"/><rect x="488" y="522" width="22" height="20"/>
      <rect x="438" y="552" width="22" height="20"/><rect x="468" y="552" width="22" height="20"/><rect x="498" y="552" width="22" height="20"/>
      <rect x="438" y="582" width="42" height="20"/><rect x="488" y="582" width="32" height="20"/>
      <rect x="438" y="612" width="22" height="20"/><rect x="468" y="612" width="22" height="20"/><rect x="498" y="612" width="22" height="20"/>
    </g>
  </g>
  <g>
    <rect x="540" y="460" width="50" height="190" fill="#1C1B18" stroke="#C9A84C" stroke-width="0.6"/>
    <g fill="#C9A84C" opacity="0.85">
      <rect x="550" y="478" width="12" height="14"/><rect x="570" y="478" width="12" height="14"/>
      <rect x="550" y="502" width="12" height="14"/><rect x="570" y="502" width="12" height="14"/>
      <rect x="550" y="526" width="12" height="14"/><rect x="570" y="526" width="12" height="14"/>
      <rect x="550" y="550" width="12" height="14"/><rect x="570" y="550" width="12" height="14"/>
      <rect x="550" y="574" width="12" height="14"/><rect x="570" y="574" width="12" height="14"/>
      <rect x="550" y="598" width="12" height="14"/><rect x="570" y="598" width="12" height="14"/>
      <rect x="550" y="622" width="12" height="14"/><rect x="570" y="622" width="12" height="14"/>
    </g>
  </g>
  <g stroke="#C9A84C" stroke-width="0.8" fill="none" opacity="0.85">
    <line x1="50" y1="690" x2="260" y2="690"/>
    <line x1="50" y1="685" x2="50" y2="700"/><line x1="260" y1="685" x2="260" y2="700"/>
    <line x1="100" y1="687" x2="100" y2="693"/><line x1="155" y1="687" x2="155" y2="693"/><line x1="210" y1="687" x2="210" y2="693"/>
    <line x1="290" y1="690" x2="390" y2="690"/>
    <line x1="290" y1="685" x2="290" y2="700"/><line x1="390" y1="685" x2="390" y2="700"/>
    <line x1="320" y1="687" x2="320" y2="693"/><line x1="350" y1="687" x2="350" y2="693"/>
    <line x1="420" y1="690" x2="530" y2="690"/>
    <line x1="420" y1="685" x2="420" y2="700"/><line x1="530" y1="685" x2="530" y2="700"/>
    <line x1="450" y1="687" x2="450" y2="693"/><line x1="490" y1="687" x2="490" y2="693"/>
  </g>
  <g font-family="Montserrat, sans-serif" font-size="13" fill="#F5F0E8" letter-spacing="0.05em">
    <text x="155" y="722" text-anchor="middle">20.0 m</text>
    <text x="340" y="722" text-anchor="middle">7.0 m</text>
    <text x="475" y="722" text-anchor="middle">6.0 m</text>
  </g>
  <g stroke="#C9A84C" stroke-width="1.2" fill="none">
    <polyline points="10,760 10,790 40,790"/>
    <polyline points="600,790 630,790 630,760"/>
  </g>
</svg>
